<?xml version="1.0" encoding="UTF-8"?>
<svg xmlns="http://www.w3.org/2000/svg" xmlns:xlink="http://www.w3.org/1999/xlink" width="720px" height="720px" viewBox="0 0 360 360" version="1.1">
<g id="surface1">
<rect x="0" y="0" width="360" height="360" style="fill:rgb(20%,20%,20%);fill-opacity:1;stroke:none;"/>
<path style="fill:none;stroke-width:1;stroke-linecap:butt;stroke-linejoin:miter;stroke:rgb(0%,0%,0%);stroke-opacity:1;stroke-miterlimit:4;" d="M 0 0 L 1024 0 L 1024 1024 L 0 1024 Z M 0 0 " transform="matrix(0.351562,0,0,0.351562,0,0)"/>
<path style=" stroke:none;fill-rule:nonzero;fill:rgb(94.901961%,41.176471%,38.82353%);fill-opacity:1;" d="M 24.117188 172.789062 C 25.398438 172.789062 26.421875 173.101562 27.1875 173.730469 C 27.953125 174.359375 28.507812 175.234375 28.84375 176.359375 C 29.1875 177.492188 29.355469 178.820312 29.355469 180.34375 C 29.355469 181.804688 29.148438 183.109375 28.734375 184.253906 C 28.328125 185.394531 27.710938 186.292969 26.890625 186.945312 C 26.0625 187.601562 25.03125 187.929688 23.789062 187.929688 C 22.222656 187.929688 20.972656 187.378906 20.03125 186.28125 L 20.03125 193.125 L 17.398438 193.441406 L 17.398438 173.132812 L 19.65625 173.132812 L 19.851562 175.082031 C 20.390625 174.34375 21.027344 173.773438 21.757812 173.378906 C 22.488281 172.984375 23.273438 172.789062 24.117188 172.789062 Z M 23.445312 174.859375 C 22.695312 174.859375 22.03125 175.085938 21.457031 175.539062 C 20.882812 175.992188 20.40625 176.507812 20.03125 177.082031 L 20.03125 184.074219 C 20.398438 184.613281 20.84375 185.039062 21.375 185.34375 C 21.90625 185.648438 22.492188 185.804688 23.144531 185.804688 C 24.277344 185.804688 25.132812 185.363281 25.703125 184.476562 C 26.28125 183.597656 26.570312 182.21875 26.570312 180.34375 C 26.570312 179.09375 26.457031 178.0625 26.226562 177.253906 C 26 176.445312 25.65625 175.84375 25.195312 175.453125 C 24.730469 175.054688 24.148438 174.859375 23.445312 174.859375 Z M 32.53125 187.585938 L 32.53125 185.640625 L 34.726562 185.640625 L 34.726562 175.082031 L 32.53125 175.082031 L 32.53125 173.132812 L 36.742188 173.132812 L 37.226562 176.519531 C 37.773438 175.320312 38.445312 174.398438 39.25 173.757812 C 40.046875 173.109375 41.085938 172.789062 42.367188 172.789062 C 42.789062 172.789062 43.15625 172.820312 43.484375 172.886719 C 43.808594 172.953125 44.140625 173.03125 44.476562 173.132812 L 43.695312 175.4375 C 43.394531 175.34375 43.117188 175.28125 42.875 175.25 C 42.625 175.210938 42.34375 175.1875 42.023438 175.1875 C 40.9375 175.1875 40.003906 175.585938 39.226562 176.367188 C 38.449219 177.15625 37.828125 178.3125 37.359375 179.835938 L 37.359375 185.640625 L 40.296875 185.640625 L 40.296875 187.585938 Z M 42.035156 178.207031 L 42.035156 174.890625 L 42.339844 173.132812 L 44.476562 173.132812 L 44.0625 178.207031 Z M 54.96875 173.132812 L 54.96875 185.585938 L 58.984375 185.585938 L 58.984375 187.585938 L 47.929688 187.585938 L 47.929688 185.585938 L 52.335938 185.585938 L 52.335938 175.132812 L 48.070312 175.132812 L 48.070312 173.132812 Z M 53.003906 166.222656 C 53.554688 166.222656 53.996094 166.390625 54.328125 166.734375 C 54.664062 167.070312 54.828125 167.480469 54.828125 167.964844 C 54.828125 168.46875 54.664062 168.890625 54.328125 169.230469 C 53.996094 169.578125 53.554688 169.75 53.003906 169.75 C 52.46875 169.75 52.03125 169.578125 51.695312 169.230469 C 51.359375 168.890625 51.195312 168.46875 51.195312 167.964844 C 51.195312 167.480469 51.359375 167.070312 51.695312 166.734375 C 52.03125 166.390625 52.46875 166.222656 53.003906 166.222656 Z M 62.398438 187.585938 L 62.398438 173.132812 L 64.65625 173.132812 L 64.851562 175.082031 C 65.445312 174.34375 66.171875 173.773438 67.023438 173.378906 C 67.882812 172.984375 68.734375 172.789062 69.578125 172.789062 C 70.96875 172.789062 71.996094 173.164062 72.65625 173.921875 C 73.3125 174.675781 73.640625 175.726562 73.640625 177.070312 L 73.640625 187.585938 L 71.007812 187.585938 L 71.007812 178.6875 C 71.007812 177.773438 70.957031 177.03125 70.851562 176.460938 C 70.746094 175.890625 70.527344 175.476562 70.203125 175.21875 C 69.871094 174.960938 69.375 174.835938 68.707031 174.835938 C 68.1875 174.835938 67.691406 174.949219 67.226562 175.179688 C 66.757812 175.40625 66.34375 175.695312 65.96875 176.039062 C 65.601562 176.390625 65.289062 176.75 65.03125 177.125 L 65.03125 187.585938 Z M 89.132812 186.84375 C 88.625 187.171875 88.003906 187.4375 87.28125 187.632812 C 86.5625 187.828125 85.835938 187.929688 85.117188 187.929688 C 83.507812 187.929688 82.277344 187.507812 81.421875 186.664062 C 80.566406 185.824219 80.140625 184.734375 80.140625 183.390625 L 80.140625 175.109375 L 76.863281 175.109375 L 76.863281 173.132812 L 80.140625 173.132812 L 80.140625 169.871094 L 82.773438 169.554688 L 82.773438 173.132812 L 87.710938 173.132812 L 87.40625 175.109375 L 82.773438 175.109375 L 82.773438 183.359375 C 82.773438 184.15625 82.976562 184.757812 83.382812 185.15625 C 83.789062 185.5625 84.46875 185.761719 85.417969 185.761719 C 85.960938 185.761719 86.453125 185.695312 86.898438 185.570312 C 87.347656 185.445312 87.765625 185.277344 88.148438 185.078125 Z M 89.132812 186.84375 "/>
<path style=" stroke:none;fill-rule:nonzero;fill:rgb(90.980393%,91.37255%,40.392157%);fill-opacity:1;" d="M 99.578125 177.992188 C 99.578125 179.367188 99.691406 180.609375 99.925781 181.710938 C 100.15625 182.8125 100.511719 183.828125 100.984375 184.75 C 101.453125 185.679688 102.046875 186.578125 102.773438 187.4375 C 103.503906 188.292969 104.359375 189.171875 105.335938 190.078125 L 103.90625 191.507812 C 102.4375 190.289062 101.171875 189.039062 100.109375 187.75 C 99.050781 186.460938 98.242188 185.027344 97.679688 183.453125 C 97.117188 181.875 96.835938 180.054688 96.835938 177.992188 C 96.835938 175.914062 97.117188 174.085938 97.679688 172.515625 C 98.242188 170.945312 99.050781 169.515625 100.109375 168.226562 C 101.171875 166.9375 102.4375 165.6875 103.90625 164.46875 L 105.335938 165.898438 C 104.359375 166.789062 103.507812 167.667969 102.78125 168.527344 C 102.0625 169.386719 101.460938 170.28125 100.992188 171.207031 C 100.515625 172.136719 100.15625 173.148438 99.925781 174.25 C 99.691406 175.351562 99.578125 176.601562 99.578125 177.992188 Z M 99.578125 177.992188 "/>
<path style=" stroke:none;fill-rule:nonzero;fill:rgb(38.431373%,94.901961%,41.176471%);fill-opacity:1;" d="M 117.0625 174.53125 L 116.613281 167.320312 L 119.695312 167.320312 L 119.257812 174.53125 Z M 121.75 174.53125 L 121.3125 167.320312 L 124.398438 167.320312 L 123.945312 174.53125 Z M 138.863281 187.585938 L 138.863281 178.78125 L 132.148438 178.78125 L 132.148438 187.585938 L 129.429688 187.585938 L 129.429688 168.691406 L 132.148438 168.691406 L 132.148438 176.546875 L 138.863281 176.546875 L 138.863281 168.691406 L 141.578125 168.691406 L 141.578125 187.585938 Z M 147.023438 181.25 C 147.078125 182.3125 147.289062 183.179688 147.667969 183.851562 C 148.039062 184.519531 148.53125 185.015625 149.136719 185.328125 C 149.738281 185.648438 150.40625 185.804688 151.136719 185.804688 C 151.859375 185.804688 152.523438 185.695312 153.125 185.472656 C 153.726562 185.253906 154.339844 184.933594 154.960938 184.515625 L 156.152344 186.171875 C 155.476562 186.710938 154.695312 187.140625 153.808594 187.453125 C 152.921875 187.769531 152.003906 187.929688 151.054688 187.929688 C 149.609375 187.929688 148.382812 187.609375 147.371094 186.976562 C 146.359375 186.339844 145.59375 185.453125 145.070312 184.320312 C 144.542969 183.1875 144.28125 181.875 144.28125 180.375 C 144.28125 178.921875 144.542969 177.625 145.070312 176.480469 C 145.59375 175.335938 146.335938 174.4375 147.296875 173.777344 C 148.257812 173.117188 149.398438 172.789062 150.726562 172.789062 C 151.96875 172.789062 153.039062 173.078125 153.945312 173.65625 C 154.84375 174.230469 155.53125 175.050781 156.015625 176.117188 C 156.5 177.179688 156.742188 178.453125 156.742188 179.933594 C 156.742188 180.179688 156.742188 180.421875 156.730469 180.648438 C 156.71875 180.875 156.707031 181.078125 156.6875 181.25 Z M 150.753906 174.84375 C 149.726562 174.84375 148.875 175.210938 148.195312 175.945312 C 147.515625 176.671875 147.125 177.804688 147.023438 179.332031 L 154.210938 179.332031 C 154.179688 177.867188 153.863281 176.757812 153.257812 175.992188 C 152.648438 175.226562 151.8125 174.84375 150.753906 174.84375 Z M 165.835938 167.320312 L 165.835938 183.855469 C 165.835938 184.550781 166.046875 185.039062 166.476562 185.328125 C 166.90625 185.617188 167.460938 185.761719 168.140625 185.761719 C 168.570312 185.761719 168.976562 185.71875 169.359375 185.625 C 169.742188 185.53125 170.125 185.414062 170.511719 185.265625 L 171.195312 187.148438 C 170.792969 187.351562 170.289062 187.53125 169.6875 187.6875 C 169.085938 187.847656 168.402344 187.929688 167.648438 187.929688 C 166.289062 187.929688 165.210938 187.546875 164.40625 186.789062 C 163.601562 186.03125 163.203125 184.992188 163.203125 183.664062 L 163.203125 169.324219 L 158.800781 169.324219 L 158.800781 167.320312 Z M 180.835938 167.320312 L 180.835938 183.855469 C 180.835938 184.550781 181.050781 185.039062 181.480469 185.328125 C 181.910156 185.617188 182.460938 185.761719 183.140625 185.761719 C 183.570312 185.761719 183.976562 185.71875 184.359375 185.625 C 184.742188 185.53125 185.125 185.414062 185.507812 185.265625 L 186.195312 187.148438 C 185.796875 187.351562 185.289062 187.53125 184.6875 187.6875 C 184.085938 187.847656 183.40625 187.929688 182.640625 187.929688 C 181.289062 187.929688 180.210938 187.546875 179.40625 186.789062 C 178.605469 186.03125 178.203125 184.992188 178.203125 183.664062 L 178.203125 169.324219 L 173.800781 169.324219 L 173.800781 167.320312 Z M 195.53125 172.789062 C 196.914062 172.789062 198.070312 173.101562 199.007812 173.726562 C 199.945312 174.34375 200.65625 175.21875 201.132812 176.347656 C 201.617188 177.476562 201.851562 178.808594 201.851562 180.34375 C 201.851562 181.835938 201.609375 183.148438 201.125 184.289062 C 200.632812 185.425781 199.914062 186.316406 198.972656 186.960938 C 198.03125 187.605469 196.878906 187.929688 195.507812 187.929688 C 194.136719 187.929688 192.976562 187.617188 192.03125 186.996094 C 191.085938 186.375 190.367188 185.5 189.882812 184.363281 C 189.398438 183.226562 189.15625 181.898438 189.15625 180.375 C 189.15625 178.875 189.402344 177.554688 189.890625 176.417969 C 190.382812 175.277344 191.101562 174.390625 192.054688 173.75 C 193 173.109375 194.164062 172.789062 195.53125 172.789062 Z M 195.53125 174.890625 C 194.34375 174.890625 193.449219 175.335938 192.84375 176.226562 C 192.242188 177.117188 191.941406 178.5 191.941406 180.375 C 191.941406 182.226562 192.238281 183.601562 192.832031 184.492188 C 193.429688 185.382812 194.320312 185.828125 195.507812 185.828125 C 196.695312 185.828125 197.585938 185.382812 198.179688 184.492188 C 198.773438 183.601562 199.070312 182.21875 199.070312 180.34375 C 199.070312 178.484375 198.777344 177.105469 198.1875 176.21875 C 197.59375 175.328125 196.710938 174.890625 195.53125 174.890625 Z M 210.503906 182.898438 C 211.171875 182.898438 211.730469 183.121094 212.179688 183.570312 C 212.625 184.015625 212.851562 184.5625 212.851562 185.214844 C 212.851562 185.578125 212.804688 185.945312 212.707031 186.316406 C 212.609375 186.6875 212.445312 187.125 212.207031 187.625 L 210.027344 192.617188 L 207.820312 192.617188 L 209.148438 187.132812 C 208.855469 186.921875 208.621094 186.648438 208.445312 186.304688 C 208.273438 185.960938 208.1875 185.59375 208.1875 185.199219 C 208.1875 184.558594 208.410156 184.015625 208.851562 183.570312 C 209.296875 183.121094 209.84375 182.898438 210.503906 182.898438 Z M 237.386719 168.691406 L 234.617188 187.585938 L 231.242188 187.585938 L 229.203125 173.449219 L 227.132812 187.585938 L 223.675781 187.585938 L 221.125 168.691406 L 223.796875 168.691406 L 225.59375 184.773438 L 227.75 170.882812 L 230.820312 170.882812 L 232.859375 184.773438 L 234.902344 168.691406 Z M 244.28125 172.789062 C 245.664062 172.789062 246.820312 173.101562 247.757812 173.726562 C 248.695312 174.34375 249.402344 175.21875 249.882812 176.347656 C 250.363281 177.476562 250.605469 178.808594 250.605469 180.34375 C 250.605469 181.835938 250.359375 183.148438 249.867188 184.289062 C 249.382812 185.425781 248.664062 186.316406 247.726562 186.960938 C 246.78125 187.605469 245.625 187.929688 244.253906 187.929688 C 242.882812 187.929688 241.726562 187.617188 240.78125 186.996094 C 239.835938 186.375 239.117188 185.5 238.632812 184.363281 C 238.148438 183.226562 237.90625 181.898438 237.90625 180.375 C 237.90625 178.875 238.152344 177.554688 238.640625 176.417969 C 239.132812 175.277344 239.851562 174.390625 240.796875 173.75 C 241.75 173.109375 242.914062 172.789062 244.28125 172.789062 Z M 244.28125 174.890625 C 243.09375 174.890625 242.199219 175.335938 241.597656 176.226562 C 240.992188 177.117188 240.691406 178.5 240.691406 180.375 C 240.691406 182.226562 240.988281 183.601562 241.582031 184.492188 C 242.175781 185.382812 243.066406 185.828125 244.253906 185.828125 C 245.445312 185.828125 246.335938 185.382812 246.929688 184.492188 C 247.523438 183.601562 247.820312 182.21875 247.820312 180.34375 C 247.820312 178.484375 247.523438 177.105469 246.9375 176.21875 C 246.34375 175.328125 245.460938 174.890625 244.28125 174.890625 Z M 253.789062 187.585938 L 253.789062 185.640625 L 255.976562 185.640625 L 255.976562 175.082031 L 253.789062 175.082031 L 253.789062 173.132812 L 257.992188 173.132812 L 258.476562 176.519531 C 259.023438 175.320312 259.695312 174.398438 260.496094 173.757812 C 261.296875 173.109375 262.335938 172.789062 263.617188 172.789062 C 264.039062 172.789062 264.410156 172.820312 264.734375 172.886719 C 265.054688 172.953125 265.390625 173.03125 265.726562 173.132812 L 264.945312 175.4375 C 264.644531 175.34375 264.371094 175.28125 264.125 175.25 C 263.875 175.210938 263.59375 175.1875 263.273438 175.1875 C 262.1875 175.1875 261.253906 175.585938 260.476562 176.367188 C 259.703125 177.15625 259.078125 178.3125 258.613281 179.835938 L 258.613281 185.640625 L 261.546875 185.640625 L 261.546875 187.585938 Z M 263.289062 178.207031 L 263.289062 174.890625 L 263.585938 173.132812 L 265.726562 173.132812 L 265.320312 178.207031 Z M 274.585938 167.320312 L 274.585938 183.855469 C 274.585938 184.550781 274.796875 185.039062 275.226562 185.328125 C 275.65625 185.617188 276.210938 185.761719 276.886719 185.761719 C 277.320312 185.761719 277.726562 185.71875 278.109375 185.625 C 278.492188 185.53125 278.875 185.414062 279.257812 185.265625 L 279.945312 187.148438 C 279.542969 187.351562 279.039062 187.53125 278.4375 187.6875 C 277.835938 187.847656 277.15625 187.929688 276.394531 187.929688 C 275.042969 187.929688 273.964844 187.546875 273.160156 186.789062 C 272.351562 186.03125 271.953125 184.992188 271.953125 183.664062 L 271.953125 169.324219 L 267.550781 169.324219 L 267.550781 167.320312 Z M 292.234375 167.007812 L 294.859375 167.320312 L 294.859375 187.585938 L 292.546875 187.585938 L 292.328125 185.734375 C 291.8125 186.464844 291.210938 187.015625 290.515625 187.378906 C 289.824219 187.746094 289.066406 187.929688 288.242188 187.929688 C 287 187.929688 285.972656 187.609375 285.164062 186.976562 C 284.355469 186.339844 283.75 185.453125 283.359375 184.320312 C 282.96875 183.1875 282.773438 181.875 282.773438 180.375 C 282.773438 178.910156 283 177.609375 283.453125 176.472656 C 283.902344 175.335938 284.550781 174.4375 285.394531 173.777344 C 286.242188 173.117188 287.265625 172.789062 288.460938 172.789062 C 289.253906 172.789062 289.964844 172.929688 290.585938 173.210938 C 291.210938 173.484375 291.757812 173.898438 292.234375 174.433594 Z M 289.148438 174.859375 C 288.023438 174.859375 287.148438 175.3125 286.527344 176.21875 C 285.90625 177.125 285.59375 178.507812 285.59375 180.375 C 285.59375 181.609375 285.722656 182.632812 285.976562 183.445312 C 286.234375 184.257812 286.605469 184.863281 287.089844 185.257812 C 287.574219 185.648438 288.171875 185.84375 288.875 185.84375 C 289.632812 185.84375 290.289062 185.625 290.84375 185.1875 C 291.394531 184.75 291.859375 184.242188 292.234375 183.664062 L 292.234375 176.601562 C 291.859375 176.054688 291.40625 175.625 290.878906 175.320312 C 290.351562 175.015625 289.777344 174.859375 289.148438 174.859375 Z M 305.65625 168.691406 L 305.367188 181.234375 L 303.0625 181.234375 L 302.75 168.691406 Z M 304.226562 184.046875 C 304.785156 184.046875 305.25 184.234375 305.625 184.609375 C 306 184.984375 306.1875 185.4375 306.1875 185.964844 C 306.1875 186.507812 306 186.96875 305.625 187.351562 C 305.25 187.734375 304.785156 187.929688 304.226562 187.929688 C 303.6875 187.929688 303.234375 187.734375 302.867188 187.351562 C 302.492188 186.96875 302.308594 186.507812 302.308594 185.964844 C 302.308594 185.4375 302.492188 184.984375 302.867188 184.609375 C 303.234375 184.234375 303.6875 184.046875 304.226562 184.046875 Z M 315.8125 174.53125 L 315.363281 167.320312 L 318.445312 167.320312 L 318.007812 174.53125 Z M 320.5 174.53125 L 320.066406 167.320312 L 323.148438 167.320312 L 322.695312 174.53125 Z M 320.5 174.53125 "/>
<path style=" stroke:none;fill-rule:nonzero;fill:rgb(88.235295%,77.254903%,30.980393%);fill-opacity:1;" d="M 340.1875 177.992188 C 340.1875 176.601562 340.070312 175.351562 339.835938 174.25 C 339.601562 173.148438 339.25 172.136719 338.773438 171.207031 C 338.296875 170.28125 337.699219 169.386719 336.976562 168.527344 C 336.253906 167.667969 335.40625 166.789062 334.429688 165.898438 L 335.851562 164.46875 C 337.335938 165.6875 338.601562 166.9375 339.65625 168.226562 C 340.710938 169.515625 341.523438 170.945312 342.085938 172.515625 C 342.648438 174.085938 342.929688 175.914062 342.929688 177.992188 C 342.929688 180.054688 342.648438 181.875 342.085938 183.453125 C 341.523438 185.027344 340.710938 186.460938 339.65625 187.75 C 338.601562 189.039062 337.335938 190.289062 335.851562 191.507812 L 334.429688 190.078125 C 335.40625 189.171875 336.257812 188.292969 336.984375 187.4375 C 337.710938 186.578125 338.308594 185.679688 338.78125 184.75 C 339.25 183.828125 339.601562 182.8125 339.835938 181.710938 C 340.070312 180.609375 340.1875 179.367188 340.1875 177.992188 Z M 340.1875 177.992188 "/>
</g>
</svg>
